<svg width="42" height="42" viewBox="0 0 42 42" fill="none" xmlns="http://www.w3.org/2000/svg">
<path d="M17.3103 21.1276C17.3103 19.0166 19.0222 17.3048 21.1345 17.3048C23.2468 17.3048 24.9597 19.0166 24.9597 21.1276C24.9597 23.2387 23.2468 24.9505 21.1345 24.9505C19.0222 24.9505 17.3103 23.2387 17.3103 21.1276ZM15.2425 21.1276C15.2425 24.3799 17.8803 27.0161 21.1345 27.0161C24.3887 27.0161 27.0266 24.3799 27.0266 21.1276C27.0266 17.8754 24.3887 15.2391 21.1345 15.2391C17.8803 15.2391 15.2425 17.8754 15.2425 21.1276ZM25.8829 15.0056C25.8828 15.2778 25.9634 15.5439 26.1146 15.7703C26.2658 15.9966 26.4808 16.1731 26.7324 16.2774C26.9839 16.3816 27.2608 16.409 27.5279 16.356C27.795 16.303 28.0404 16.172 28.2331 15.9797C28.4257 15.7873 28.557 15.5421 28.6102 15.2752C28.6634 15.0083 28.6363 14.7316 28.5322 14.4801C28.428 14.2286 28.2516 14.0136 28.0253 13.8623C27.7989 13.711 27.5327 13.6302 27.2604 13.6301H27.2598C26.8948 13.6302 26.5447 13.7752 26.2865 14.0331C26.0284 14.291 25.8832 14.6408 25.8829 15.0056ZM16.4988 30.462C15.3801 30.4111 14.772 30.2249 14.3679 30.0676C13.8322 29.8591 13.45 29.6109 13.0481 29.2098C12.6462 28.8087 12.3974 28.427 12.1898 27.8916C12.0323 27.488 11.8459 26.8801 11.7951 25.762C11.7394 24.5533 11.7283 24.1901 11.7283 21.1277C11.7283 18.0653 11.7404 17.7032 11.7951 16.4934C11.846 15.3754 12.0337 14.7687 12.1898 14.3638C12.3984 13.8284 12.6468 13.4464 13.0481 13.0448C13.4494 12.6431 13.8313 12.3945 14.3679 12.187C14.7718 12.0296 15.3801 11.8433 16.4988 11.7925C17.7083 11.7369 18.0716 11.7258 21.1345 11.7258C24.1974 11.7258 24.5611 11.7378 25.7716 11.7925C26.8903 11.8434 27.4974 12.031 27.9025 12.187C28.4382 12.3945 28.8204 12.6437 29.2223 13.0448C29.6242 13.4459 29.8721 13.8284 30.0806 14.3638C30.2381 14.7675 30.4245 15.3754 30.4753 16.4934C30.531 17.7032 30.5421 18.0653 30.5421 21.1277C30.5421 24.1901 30.531 24.5522 30.4753 25.762C30.4244 26.8801 30.2371 27.4878 30.0806 27.8916C29.8721 28.427 29.6237 28.809 29.2223 29.2098C28.821 29.6105 28.4382 29.8591 27.9025 30.0676C27.4986 30.225 26.8903 30.4112 25.7716 30.462C24.5621 30.5176 24.1988 30.5287 21.1345 30.5287C18.0703 30.5287 17.7079 30.5176 16.4988 30.462ZM16.4038 9.72942C15.1823 9.78502 14.3476 9.97859 13.6186 10.2621C12.8637 10.5548 12.2246 10.9476 11.586 11.5848C10.9473 12.222 10.5554 12.8617 10.2624 13.6162C9.97878 14.3452 9.78509 15.1789 9.72946 16.3997C9.67292 17.6225 9.65997 18.0134 9.65997 21.1276C9.65997 24.2419 9.67292 24.6328 9.72946 25.8555C9.78509 27.0764 9.97878 27.9101 10.2624 28.639C10.5554 29.3931 10.9474 30.0335 11.586 30.6705C12.2245 31.3074 12.8637 31.6996 13.6186 31.9932C14.3489 32.2767 15.1823 32.4703 16.4038 32.5259C17.6279 32.5814 18.0184 32.5953 21.1345 32.5953C24.2506 32.5953 24.6418 32.5824 25.8652 32.5259C27.0869 32.4703 27.921 32.2767 28.6504 31.9932C29.4049 31.6996 30.0445 31.3077 30.6831 30.6705C31.3217 30.0332 31.7129 29.3931 32.0066 28.639C32.2903 27.9101 32.4849 27.0763 32.5396 25.8555C32.5952 24.6319 32.6081 24.2419 32.6081 21.1276C32.6081 18.0134 32.5952 17.6225 32.5396 16.3997C32.4839 15.1789 32.2903 14.3447 32.0066 13.6162C31.7129 12.8622 31.3207 12.223 30.6831 11.5848C30.0455 10.9466 29.4049 10.5548 28.6514 10.2621C27.921 9.97859 27.0868 9.7841 25.8662 9.72942C24.6427 9.67383 24.2516 9.65997 21.1354 9.65997C18.0193 9.65997 17.6279 9.67291 16.4038 9.72942Z" fill="white"/>
</svg>
