<svg width="203" height="32" viewBox="0 0 203 32" fill="none" xmlns="http://www.w3.org/2000/svg">
<g id="Group 17">
<path id="Vector" d="M46.0966 8.74767C48.176 8.74767 49.382 7.61841 49.382 5.71818C49.382 3.81795 48.176 2.79105 46.0966 2.79105H42.0914V8.74767H46.0966ZM53.7215 19.0422H49.7675L45.6343 11.3405H42.0914V19.0422H38.5485V0.0446777H45.9159C50.3833 0.0446777 53.0529 2.07287 53.0529 5.46225C53.0529 9.13315 50.4345 11.2893 45.9926 11.2893V11.3405C48.072 11.3405 49.921 12.3162 50.8696 14.0101L53.7199 19.0422H53.7215Z" fill="#3A3A3A"/>
<path id="Vector_2" d="M55.3096 6.15495H58.699V19.0423H55.3096V6.15495ZM55.3096 0.481445H58.699V3.69008H55.3096V0.481445Z" fill="#3A3A3A"/>
<path id="Vector_3" d="M73.4627 6.15503L70.0989 19.0424H63.7073L60.3179 6.15503H63.9376L66.8903 18.812H66.9415L69.843 6.15503H73.4627Z" fill="#3A3A3A"/>
<path id="Vector_4" d="M77.2807 11.8285H83.3397C83.1349 9.67233 82.0313 8.4391 80.3358 8.4391C78.6403 8.4391 77.511 9.67073 77.2807 11.8285ZM86.6507 12.9833H77.2551C77.3831 15.3458 78.5123 16.731 80.3358 16.731C81.9273 16.731 83.031 15.8577 83.3653 14.4453H86.6507C86.1884 17.5004 83.8259 19.2982 80.3358 19.2982C76.3306 19.2982 73.9681 16.8078 73.9681 12.5979C73.9681 8.38791 76.3306 5.89746 80.3358 5.89746C84.341 5.89746 86.6507 8.36232 86.6507 12.5979V12.9833Z" fill="#3A3A3A"/>
<path id="Vector_5" d="M98.0777 6.30843L97.102 9.33792C96.5886 9.05481 95.9472 8.87566 95.3057 8.87566C93.3287 8.87566 92.1483 10.4928 92.1483 13.2136V19.0406H88.7589V6.15328H92.1483V11.4669H92.1995C92.1995 7.94954 93.663 5.89575 96.1023 5.89575C96.8477 5.89575 97.5659 6.04931 98.0793 6.30683" fill="#3A3A3A"/>
<path id="Vector_6" d="M0 19.1016V32.0001C7.12267 32.0001 12.8985 26.2258 12.8985 19.1016H0Z" fill="#3A3A3A"/>
<path id="Vector_7" d="M31.9983 19.1015V0C21.4495 0 12.8969 8.55103 12.8969 19.1015H31.9983Z" fill="#3A3A3A"/>
<g id="Group 3">
<path id="Vector_8" d="M112.323 11.6589L109.089 0.31189H109.037L105.778 11.6589H112.324H112.323ZM113.094 14.4053H104.981L103.673 19.0007H100.13L106.035 0.00317383H112.299L118.177 19.0007H114.404L113.095 14.4053H113.094Z" fill="#3A3A3A"/>
<path id="Vector_9" d="M128.529 12.5562C128.529 10.1682 127.323 8.52544 125.27 8.52544C123.216 8.52544 122.008 10.0402 122.008 12.5562C122.008 15.0723 123.214 16.5614 125.27 16.5614C127.325 16.5614 128.529 14.9187 128.529 12.5562ZM131.738 0.00160108V18.9991H128.349V14.5572H128.298C128.298 17.51 126.578 19.255 123.702 19.255C120.468 19.255 118.568 16.7646 118.568 12.5546C118.568 8.3447 120.468 5.85424 123.702 5.85424C126.578 5.85424 128.298 7.59932 128.298 10.5264H128.349V0H131.738V0.00160108Z" fill="#3A3A3A"/>
<path id="Vector_10" d="M146.43 6.11328L143.066 19.0006H136.674L133.285 6.11328H136.905L139.857 18.7687H139.908L142.81 6.11328H146.43Z" fill="#3A3A3A"/>
<path id="Vector_11" d="M148.264 6.11335H151.654V19.0007H148.264V6.11335ZM148.264 0.00317383H151.654V3.64849H148.264V0.00317383Z" fill="#3A3A3A"/>
<path id="Vector_12" d="M153.488 14.8163H156.646C156.646 16.2543 157.647 17.1021 159.341 17.1021C161.035 17.1021 161.934 16.4862 161.934 15.4082C161.934 14.047 160.419 13.791 158.725 13.5079C156.492 13.148 153.821 12.7114 153.821 9.76025C153.821 7.32098 155.875 5.85742 159.341 5.85742C162.807 5.85742 164.835 7.42335 164.835 10.093H161.678C161.678 8.73176 160.83 7.96239 159.341 7.96239C157.929 7.96239 157.083 8.52702 157.083 9.47714C157.083 10.632 158.495 10.8639 160.138 11.1454C162.422 11.5309 165.195 11.9932 165.195 15.0227C165.195 17.6667 163.014 19.2582 159.343 19.2582C155.672 19.2582 153.49 17.6155 153.49 14.8163" fill="#3A3A3A"/>
<path id="Vector_13" d="M176.484 12.5564C176.484 10.0403 175.278 8.52556 173.225 8.52556C171.171 8.52556 169.965 10.0403 169.965 12.5564C169.965 15.0724 171.171 16.5615 173.225 16.5615C175.278 16.5615 176.484 15.0724 176.484 12.5564ZM166.497 12.5564C166.497 8.34641 169.013 5.85596 173.223 5.85596C177.433 5.85596 179.923 8.34641 179.923 12.5564C179.923 16.7663 177.433 19.2567 173.223 19.2567C169.013 19.2567 166.497 16.7663 166.497 12.5564Z" fill="#3A3A3A"/>
<path id="Vector_14" d="M190.968 6.26693L189.993 9.29642C189.479 9.0133 188.838 8.83416 188.196 8.83416C186.219 8.83416 185.039 10.4513 185.039 13.1721V18.9991H181.65V6.11177H185.039V11.4254H185.09C185.09 7.90804 186.554 5.85425 188.993 5.85425C189.738 5.85425 190.457 6.0078 190.97 6.26533" fill="#3A3A3A"/>
<path id="Vector_15" d="M191.291 14.8163H194.449C194.449 16.2543 195.45 17.1021 197.144 17.1021C198.838 17.1021 199.737 16.4862 199.737 15.4082C199.737 14.047 198.222 13.791 196.528 13.5079C194.295 13.148 191.626 12.7114 191.626 9.76025C191.626 7.32098 193.679 5.85742 197.146 5.85742C200.612 5.85742 202.64 7.42335 202.64 10.093H199.482C199.482 8.73176 198.635 7.96239 197.146 7.96239C195.733 7.96239 194.887 8.52702 194.887 9.47714C194.887 10.632 196.299 10.8639 197.942 11.1454C200.228 11.5309 203 11.9932 203 15.0227C203 17.6667 200.818 19.2582 197.147 19.2582C193.476 19.2582 191.295 17.6155 191.295 14.8163" fill="#3A3A3A"/>
</g>
</g>
</svg>
