<svg width="1300" height="152" viewBox="0 0 1300 152" fill="none" xmlns="http://www.w3.org/2000/svg">
<path d="M59.9714 68.7227C76.4925 68.7227 86.0748 59.8056 86.0748 44.8005C86.0748 29.7954 76.4925 21.6866 59.9714 21.6866H28.1493V68.7227H59.9714ZM120.553 150.013H89.1375L56.2987 89.1968H28.1493V150.013H0V0H58.5354C94.0303 0 115.241 16.0155 115.241 42.7796C115.241 71.7667 94.437 88.7926 59.1454 88.7926V89.1968C75.6665 89.1968 90.3575 96.9015 97.8937 110.277L120.54 150.013H120.553Z" fill="white"/>
<path d="M132.509 48.6139H159.409V150.013H132.509V48.6139ZM132.509 3.97412H159.409V29.2201H132.509V3.97412Z" fill="white"/>
<path d="M275.977 48.6796L249.461 150.013H199.078L172.361 48.6796H200.894L224.169 148.202H224.572L247.444 48.6796H275.977Z" fill="white"/>
<path d="M306.245 93.3006H354.318C352.694 76.3569 343.937 66.6659 330.485 66.6659C317.032 66.6659 308.072 76.3444 306.245 93.3006ZM380.589 102.376H306.042C307.057 120.941 316.017 131.826 330.485 131.826C343.112 131.826 351.869 124.963 354.521 113.864H380.589C376.921 137.872 358.177 152 330.485 152C298.707 152 279.962 132.429 279.962 99.3465C279.962 66.2636 298.707 46.693 330.485 46.693C362.263 46.693 380.589 66.0625 380.589 99.3465V102.376Z" fill="white"/>
<path d="M471.24 49.9367L463.522 73.7489C459.46 71.5235 454.387 70.1154 449.313 70.1154C433.674 70.1154 424.337 82.8261 424.337 104.212V150.013H397.526V48.7172H424.337V90.4827H424.742C424.742 62.836 436.319 46.693 455.614 46.693C461.51 46.693 467.191 47.9 471.252 49.9241" fill="white"/>
<path d="M583.41 91.8738L557.851 2.45823H557.446L531.685 91.8738H583.423H583.41ZM589.503 113.516H525.39L515.05 149.728H487.052L533.72 0.0255127H583.22L629.674 149.728H599.855L589.515 113.516H589.503Z" fill="white"/>
<path d="M711.486 98.9445C711.486 80.1261 701.955 67.1814 685.725 67.1814C669.494 67.1814 659.951 79.1178 659.951 98.9445C659.951 118.771 669.482 130.506 685.725 130.506C701.968 130.506 711.486 117.561 711.486 98.9445ZM736.843 0.0126167V149.715H710.057V114.713H709.653C709.653 137.98 696.064 151.732 673.337 151.732C647.778 151.732 632.761 132.107 632.761 98.9319C632.761 65.7571 647.778 46.132 673.337 46.132C696.064 46.132 709.653 59.8835 709.653 82.9495H710.057V0H736.843V0.0126167Z" fill="white"/>
<path d="M852.945 48.1727L826.362 149.726H775.851L749.065 48.1727H777.671L801.005 147.899H801.41L824.339 48.1727H852.945Z" fill="white"/>
<path d="M867.444 48.1742H894.229V149.728H867.444V48.1742ZM867.444 0.0253906H894.229V28.7509H867.444V0.0253906Z" fill="white"/>
<path d="M908.728 116.754H933.68C933.68 128.085 941.593 134.766 954.979 134.766C968.365 134.766 975.469 129.913 975.469 121.418C975.469 110.691 963.499 108.675 950.112 106.444C932.466 103.608 911.357 100.167 911.357 76.9114C911.357 57.6897 927.587 46.1567 954.979 46.1567C982.371 46.1567 998.399 58.4964 998.399 79.5332H973.447C973.447 68.8068 966.747 62.7441 954.979 62.7441C943.817 62.7441 937.131 67.1935 937.131 74.6805C937.131 83.7809 948.292 85.6085 961.274 87.8269C979.325 90.8645 1001.24 94.5072 1001.24 118.38C1001.24 139.215 984.001 151.756 954.992 151.756C925.982 151.756 908.74 138.812 908.74 116.754" fill="white"/>
<path d="M1090.46 98.9458C1090.46 79.1191 1080.93 67.1827 1064.7 67.1827C1048.47 67.1827 1038.94 79.1191 1038.94 98.9458C1038.94 118.773 1048.47 130.507 1064.7 130.507C1080.93 130.507 1090.46 118.773 1090.46 98.9458ZM1011.53 98.9458C1011.53 65.7711 1031.42 46.146 1064.69 46.146C1097.96 46.146 1117.64 65.7711 1117.64 98.9458C1117.64 132.121 1097.96 151.746 1064.69 151.746C1031.42 151.746 1011.53 132.121 1011.53 98.9458Z" fill="white"/>
<path d="M1204.92 49.3827L1197.21 73.2554C1193.15 71.0244 1188.08 69.6127 1183.01 69.6127C1167.39 69.6127 1158.06 82.3558 1158.06 103.796V149.714H1131.28V48.16H1158.06V90.0319H1158.47C1158.47 62.3148 1170.03 46.1307 1189.31 46.1307C1195.2 46.1307 1200.87 47.3408 1204.93 49.3701" fill="white"/>
<path d="M1207.47 116.754H1232.42C1232.42 128.085 1240.34 134.766 1253.72 134.766C1267.11 134.766 1274.21 129.913 1274.21 121.418C1274.21 110.691 1262.24 108.675 1248.86 106.444C1231.21 103.608 1210.11 100.167 1210.11 76.9114C1210.11 57.6897 1226.34 46.1567 1253.74 46.1567C1281.13 46.1567 1297.16 58.4964 1297.16 79.5332H1272.2C1272.2 68.8068 1265.5 62.7441 1253.74 62.7441C1242.57 62.7441 1235.89 67.1935 1235.89 74.6805C1235.89 83.7809 1247.05 85.6085 1260.03 87.8269C1278.09 90.8645 1300 94.5072 1300 118.38C1300 139.215 1282.76 151.756 1253.75 151.756C1224.74 151.756 1207.5 138.812 1207.5 116.754" fill="white"/>
</svg>
